G04 #@! TF.GenerationSoftware,KiCad,Pcbnew,9.0.0*
G04 #@! TF.CreationDate,2025-03-04T20:42:06+02:00*
G04 #@! TF.ProjectId,EEPROMProgrammer,45455052-4f4d-4507-926f-6772616d6d65,rev?*
G04 #@! TF.SameCoordinates,Original*
G04 #@! TF.FileFunction,Copper,L4,Bot*
G04 #@! TF.FilePolarity,Positive*
%FSLAX46Y46*%
G04 Gerber Fmt 4.6, Leading zero omitted, Abs format (unit mm)*
G04 Created by KiCad (PCBNEW 9.0.0) date 2025-03-04 20:42:06*
%MOMM*%
%LPD*%
G01*
G04 APERTURE LIST*
G04 #@! TA.AperFunction,ComponentPad*
%ADD10R,1.130000X1.130000*%
G04 #@! TD*
G04 #@! TA.AperFunction,ComponentPad*
%ADD11C,1.130000*%
G04 #@! TD*
G04 #@! TA.AperFunction,ComponentPad*
%ADD12R,1.524000X1.524000*%
G04 #@! TD*
G04 #@! TA.AperFunction,ComponentPad*
%ADD13R,1.524000X0.635000*%
G04 #@! TD*
G04 #@! TA.AperFunction,ComponentPad*
%ADD14R,1.600000X1.600000*%
G04 #@! TD*
G04 #@! TA.AperFunction,ComponentPad*
%ADD15O,1.600000X1.600000*%
G04 #@! TD*
G04 #@! TA.AperFunction,Conductor*
%ADD16C,0.400000*%
G04 #@! TD*
G04 APERTURE END LIST*
D10*
X150300000Y-52800000D03*
D11*
X150300000Y-55340000D03*
X150300000Y-57880000D03*
X150300000Y-60420000D03*
X150300000Y-62960000D03*
X150300000Y-65500000D03*
X150300000Y-68040000D03*
X150300000Y-70580000D03*
X158240000Y-70580000D03*
X158240000Y-68040000D03*
X158240000Y-65500000D03*
X158240000Y-62960000D03*
X158240000Y-60420000D03*
X158240000Y-57880000D03*
X158240000Y-55340000D03*
X158240000Y-52800000D03*
D10*
X175020000Y-47900000D03*
D11*
X177560000Y-47900000D03*
X180100000Y-47900000D03*
X182640000Y-47900000D03*
X185180000Y-47900000D03*
X187720000Y-47900000D03*
X190260000Y-47900000D03*
X192800000Y-47900000D03*
X192800000Y-39960000D03*
X190260000Y-39960000D03*
X187720000Y-39960000D03*
X185180000Y-39960000D03*
X182640000Y-39960000D03*
X180100000Y-39960000D03*
X177560000Y-39960000D03*
X175020000Y-39960000D03*
D12*
X168900000Y-54224000D03*
D13*
X168900000Y-57018000D03*
X168900000Y-59812000D03*
X168900000Y-62606000D03*
X168900000Y-65400000D03*
X168900000Y-68194000D03*
X168900000Y-70988000D03*
X168900000Y-73782000D03*
X168900000Y-76576000D03*
X168900000Y-79370000D03*
X168900000Y-82164000D03*
X168900000Y-84958000D03*
X168900000Y-87752000D03*
X168900000Y-90546000D03*
X186400600Y-90546000D03*
X186400600Y-87752000D03*
X186400600Y-84958000D03*
X186400600Y-82164000D03*
X186400600Y-79370000D03*
X186400600Y-76576000D03*
X186400600Y-73782000D03*
X186400600Y-70988000D03*
X186400600Y-68194000D03*
X186400600Y-65400000D03*
X186400600Y-62606000D03*
X186400600Y-59812000D03*
X186400600Y-57018000D03*
X186400600Y-54224000D03*
D14*
X140040000Y-78920000D03*
D15*
X140040000Y-76380000D03*
X140040000Y-73840000D03*
X140040000Y-71300000D03*
X140040000Y-68760000D03*
X140040000Y-66220000D03*
X140040000Y-63680000D03*
X140040000Y-61140000D03*
X140040000Y-58600000D03*
X140040000Y-56060000D03*
X140040000Y-53520000D03*
X140040000Y-50980000D03*
X140040000Y-48440000D03*
X140040000Y-45900000D03*
X140040000Y-43360000D03*
X124800000Y-43360000D03*
X124800000Y-45900000D03*
X124800000Y-48440000D03*
X124800000Y-50980000D03*
X124800000Y-53520000D03*
X124800000Y-56060000D03*
X124800000Y-58600000D03*
X124800000Y-61140000D03*
X124800000Y-63680000D03*
X124800000Y-66220000D03*
X124800000Y-68760000D03*
X124800000Y-71300000D03*
X124800000Y-73840000D03*
X124800000Y-76380000D03*
X124800000Y-78920000D03*
D16*
X184180000Y-41500000D02*
X182640000Y-39960000D01*
X186400000Y-41500000D02*
X184180000Y-41500000D01*
X192800000Y-47900000D02*
X186400000Y-41500000D01*
X175913000Y-40853000D02*
X175020000Y-39960000D01*
X175913000Y-48793000D02*
X175913000Y-40853000D01*
X181344000Y-54224000D02*
X175913000Y-48793000D01*
X186400600Y-54224000D02*
X181344000Y-54224000D01*
X192800000Y-70176600D02*
X192800000Y-47900000D01*
X186400600Y-76576000D02*
X192800000Y-70176600D01*
X168954000Y-90546000D02*
X182924000Y-76576000D01*
X168900000Y-90546000D02*
X168954000Y-90546000D01*
X182924000Y-76576000D02*
X186400600Y-76576000D01*
X150300000Y-71300000D02*
X168900000Y-89900000D01*
X168900000Y-89900000D02*
X168900000Y-90546000D01*
X150300000Y-70580000D02*
X150300000Y-71300000D01*
X158240000Y-61697107D02*
X158240000Y-60420000D01*
X150300000Y-69637107D02*
X158240000Y-61697107D01*
X150300000Y-70580000D02*
X150300000Y-69637107D01*
X149580000Y-71300000D02*
X150300000Y-70580000D01*
X140040000Y-71300000D02*
X149580000Y-71300000D01*
X168746000Y-68040000D02*
X168900000Y-68194000D01*
X158240000Y-68040000D02*
X168746000Y-68040000D01*
X160250000Y-66030000D02*
X160250000Y-54810000D01*
X160250000Y-54810000D02*
X158240000Y-52800000D01*
X158240000Y-68040000D02*
X160250000Y-66030000D01*
X176230000Y-38750000D02*
X175020000Y-39960000D01*
X189050000Y-38750000D02*
X176230000Y-38750000D01*
X190260000Y-39960000D02*
X189050000Y-38750000D01*
X171080000Y-39960000D02*
X175020000Y-39960000D01*
X158240000Y-52800000D02*
X171080000Y-39960000D01*
X153160000Y-57880000D02*
X158240000Y-52800000D01*
X150300000Y-57880000D02*
X153160000Y-57880000D01*
X149670000Y-57250000D02*
X150300000Y-57880000D01*
X138850000Y-57250000D02*
X149670000Y-57250000D01*
X124800000Y-71300000D02*
X138850000Y-57250000D01*
M02*
