M48
; DRILL file {KiCad 9.0.0} date 2025-03-04T20:43:03+0200
; FORMAT={-:-/ absolute / metric / decimal}
; #@! TF.CreationDate,2025-03-04T20:43:03+02:00
; #@! TF.GenerationSoftware,Kicad,Pcbnew,9.0.0
; #@! TF.FileFunction,Plated,1,4,PTH
FMAT,2
METRIC
; #@! TA.AperFunction,Plated,PTH,ComponentDrill
T1C0.780
; #@! TA.AperFunction,Plated,PTH,ComponentDrill
T2C0.813
; #@! TA.AperFunction,Plated,PTH,ComponentDrill
T3C1.000
%
G90
G05
T1
X150.3Y-52.8
X150.3Y-55.34
X150.3Y-57.88
X150.3Y-60.42
X150.3Y-62.96
X150.3Y-65.5
X150.3Y-68.04
X150.3Y-70.58
X158.24Y-52.8
X158.24Y-55.34
X158.24Y-57.88
X158.24Y-60.42
X158.24Y-62.96
X158.24Y-65.5
X158.24Y-68.04
X158.24Y-70.58
X175.02Y-39.96
X175.02Y-47.9
X177.56Y-39.96
X177.56Y-47.9
X180.1Y-39.96
X180.1Y-47.9
X182.64Y-39.96
X182.64Y-47.9
X185.18Y-39.96
X185.18Y-47.9
X187.72Y-39.96
X187.72Y-47.9
X190.26Y-39.96
X190.26Y-47.9
X192.8Y-39.96
X192.8Y-47.9
T2
X168.9Y-54.224
X168.9Y-57.018
X168.9Y-59.812
X168.9Y-62.606
X168.9Y-65.4
X168.9Y-68.194
X168.9Y-70.988
X168.9Y-73.782
X168.9Y-76.576
X168.9Y-79.37
X168.9Y-82.164
X168.9Y-84.958
X168.9Y-87.752
X168.9Y-90.546
X186.401Y-54.224
X186.401Y-57.018
X186.401Y-59.812
X186.401Y-62.606
X186.401Y-65.4
X186.401Y-68.194
X186.401Y-70.988
X186.401Y-73.782
X186.401Y-76.576
X186.401Y-79.37
X186.401Y-82.164
X186.401Y-84.958
X186.401Y-87.752
X186.401Y-90.546
T3
X124.8Y-43.36
X124.8Y-45.9
X124.8Y-48.44
X124.8Y-50.98
X124.8Y-53.52
X124.8Y-56.06
X124.8Y-58.6
X124.8Y-61.14
X124.8Y-63.68
X124.8Y-66.22
X124.8Y-68.76
X124.8Y-71.3
X124.8Y-73.84
X124.8Y-76.38
X124.8Y-78.92
X140.04Y-43.36
X140.04Y-45.9
X140.04Y-48.44
X140.04Y-50.98
X140.04Y-53.52
X140.04Y-56.06
X140.04Y-58.6
X140.04Y-61.14
X140.04Y-63.68
X140.04Y-66.22
X140.04Y-68.76
X140.04Y-71.3
X140.04Y-73.84
X140.04Y-76.38
X140.04Y-78.92
M30
