G04 #@! TF.GenerationSoftware,KiCad,Pcbnew,9.0.0*
G04 #@! TF.CreationDate,2025-03-04T20:42:06+02:00*
G04 #@! TF.ProjectId,EEPROMProgrammer,45455052-4f4d-4507-926f-6772616d6d65,rev?*
G04 #@! TF.SameCoordinates,Original*
G04 #@! TF.FileFunction,Legend,Top*
G04 #@! TF.FilePolarity,Positive*
%FSLAX46Y46*%
G04 Gerber Fmt 4.6, Leading zero omitted, Abs format (unit mm)*
G04 Created by KiCad (PCBNEW 9.0.0) date 2025-03-04 20:42:06*
%MOMM*%
%LPD*%
G01*
G04 APERTURE LIST*
G04 Aperture macros list*
%AMRoundRect*
0 Rectangle with rounded corners*
0 $1 Rounding radius*
0 $2 $3 $4 $5 $6 $7 $8 $9 X,Y pos of 4 corners*
0 Add a 4 corners polygon primitive as box body*
4,1,4,$2,$3,$4,$5,$6,$7,$8,$9,$2,$3,0*
0 Add four circle primitives for the rounded corners*
1,1,$1+$1,$2,$3*
1,1,$1+$1,$4,$5*
1,1,$1+$1,$6,$7*
1,1,$1+$1,$8,$9*
0 Add four rect primitives between the rounded corners*
20,1,$1+$1,$2,$3,$4,$5,0*
20,1,$1+$1,$4,$5,$6,$7,0*
20,1,$1+$1,$6,$7,$8,$9,0*
20,1,$1+$1,$8,$9,$2,$3,0*%
G04 Aperture macros list end*
%ADD10C,0.250000*%
%ADD11C,0.150000*%
%ADD12C,0.127000*%
%ADD13C,0.200000*%
%ADD14C,0.152400*%
%ADD15C,0.120000*%
%ADD16RoundRect,0.102000X-0.565000X-0.565000X0.565000X-0.565000X0.565000X0.565000X-0.565000X0.565000X0*%
%ADD17C,1.334000*%
%ADD18RoundRect,0.102000X0.565000X-0.565000X0.565000X0.565000X-0.565000X0.565000X-0.565000X-0.565000X0*%
%ADD19R,1.524000X1.524000*%
%ADD20R,1.524000X0.635000*%
%ADD21R,1.600000X1.600000*%
%ADD22O,1.600000X1.600000*%
G04 APERTURE END LIST*
D10*
X129864619Y-69311717D02*
X130578904Y-69311717D01*
X130578904Y-69311717D02*
X130721761Y-69359336D01*
X130721761Y-69359336D02*
X130817000Y-69454574D01*
X130817000Y-69454574D02*
X130864619Y-69597431D01*
X130864619Y-69597431D02*
X130864619Y-69692669D01*
X130864619Y-68359336D02*
X130864619Y-68835526D01*
X130864619Y-68835526D02*
X129864619Y-68835526D01*
X130769380Y-67454574D02*
X130817000Y-67502193D01*
X130817000Y-67502193D02*
X130864619Y-67645050D01*
X130864619Y-67645050D02*
X130864619Y-67740288D01*
X130864619Y-67740288D02*
X130817000Y-67883145D01*
X130817000Y-67883145D02*
X130721761Y-67978383D01*
X130721761Y-67978383D02*
X130626523Y-68026002D01*
X130626523Y-68026002D02*
X130436047Y-68073621D01*
X130436047Y-68073621D02*
X130293190Y-68073621D01*
X130293190Y-68073621D02*
X130102714Y-68026002D01*
X130102714Y-68026002D02*
X130007476Y-67978383D01*
X130007476Y-67978383D02*
X129912238Y-67883145D01*
X129912238Y-67883145D02*
X129864619Y-67740288D01*
X129864619Y-67740288D02*
X129864619Y-67645050D01*
X129864619Y-67645050D02*
X129912238Y-67502193D01*
X129912238Y-67502193D02*
X129959857Y-67454574D01*
X129864619Y-66740288D02*
X130578904Y-66740288D01*
X130578904Y-66740288D02*
X130721761Y-66787907D01*
X130721761Y-66787907D02*
X130817000Y-66883145D01*
X130817000Y-66883145D02*
X130864619Y-67026002D01*
X130864619Y-67026002D02*
X130864619Y-67121240D01*
X130864619Y-65787907D02*
X130864619Y-66264097D01*
X130864619Y-66264097D02*
X129864619Y-66264097D01*
X130769380Y-64883145D02*
X130817000Y-64930764D01*
X130817000Y-64930764D02*
X130864619Y-65073621D01*
X130864619Y-65073621D02*
X130864619Y-65168859D01*
X130864619Y-65168859D02*
X130817000Y-65311716D01*
X130817000Y-65311716D02*
X130721761Y-65406954D01*
X130721761Y-65406954D02*
X130626523Y-65454573D01*
X130626523Y-65454573D02*
X130436047Y-65502192D01*
X130436047Y-65502192D02*
X130293190Y-65502192D01*
X130293190Y-65502192D02*
X130102714Y-65454573D01*
X130102714Y-65454573D02*
X130007476Y-65406954D01*
X130007476Y-65406954D02*
X129912238Y-65311716D01*
X129912238Y-65311716D02*
X129864619Y-65168859D01*
X129864619Y-65168859D02*
X129864619Y-65073621D01*
X129864619Y-65073621D02*
X129912238Y-64930764D01*
X129912238Y-64930764D02*
X129959857Y-64883145D01*
X129864619Y-64168859D02*
X130578904Y-64168859D01*
X130578904Y-64168859D02*
X130721761Y-64216478D01*
X130721761Y-64216478D02*
X130817000Y-64311716D01*
X130817000Y-64311716D02*
X130864619Y-64454573D01*
X130864619Y-64454573D02*
X130864619Y-64549811D01*
X130864619Y-63216478D02*
X130864619Y-63692668D01*
X130864619Y-63692668D02*
X129864619Y-63692668D01*
X130769380Y-62311716D02*
X130817000Y-62359335D01*
X130817000Y-62359335D02*
X130864619Y-62502192D01*
X130864619Y-62502192D02*
X130864619Y-62597430D01*
X130864619Y-62597430D02*
X130817000Y-62740287D01*
X130817000Y-62740287D02*
X130721761Y-62835525D01*
X130721761Y-62835525D02*
X130626523Y-62883144D01*
X130626523Y-62883144D02*
X130436047Y-62930763D01*
X130436047Y-62930763D02*
X130293190Y-62930763D01*
X130293190Y-62930763D02*
X130102714Y-62883144D01*
X130102714Y-62883144D02*
X130007476Y-62835525D01*
X130007476Y-62835525D02*
X129912238Y-62740287D01*
X129912238Y-62740287D02*
X129864619Y-62597430D01*
X129864619Y-62597430D02*
X129864619Y-62502192D01*
X129864619Y-62502192D02*
X129912238Y-62359335D01*
X129912238Y-62359335D02*
X129959857Y-62311716D01*
X129864619Y-61597430D02*
X130578904Y-61597430D01*
X130578904Y-61597430D02*
X130721761Y-61645049D01*
X130721761Y-61645049D02*
X130817000Y-61740287D01*
X130817000Y-61740287D02*
X130864619Y-61883144D01*
X130864619Y-61883144D02*
X130864619Y-61978382D01*
X130864619Y-60645049D02*
X130864619Y-61121239D01*
X130864619Y-61121239D02*
X129864619Y-61121239D01*
X130769380Y-59740287D02*
X130817000Y-59787906D01*
X130817000Y-59787906D02*
X130864619Y-59930763D01*
X130864619Y-59930763D02*
X130864619Y-60026001D01*
X130864619Y-60026001D02*
X130817000Y-60168858D01*
X130817000Y-60168858D02*
X130721761Y-60264096D01*
X130721761Y-60264096D02*
X130626523Y-60311715D01*
X130626523Y-60311715D02*
X130436047Y-60359334D01*
X130436047Y-60359334D02*
X130293190Y-60359334D01*
X130293190Y-60359334D02*
X130102714Y-60311715D01*
X130102714Y-60311715D02*
X130007476Y-60264096D01*
X130007476Y-60264096D02*
X129912238Y-60168858D01*
X129912238Y-60168858D02*
X129864619Y-60026001D01*
X129864619Y-60026001D02*
X129864619Y-59930763D01*
X129864619Y-59930763D02*
X129912238Y-59787906D01*
X129912238Y-59787906D02*
X129959857Y-59740287D01*
D11*
X152178333Y-51309819D02*
X151702143Y-51309819D01*
X151702143Y-51309819D02*
X151702143Y-50309819D01*
X152464048Y-51262200D02*
X152606905Y-51309819D01*
X152606905Y-51309819D02*
X152845000Y-51309819D01*
X152845000Y-51309819D02*
X152940238Y-51262200D01*
X152940238Y-51262200D02*
X152987857Y-51214580D01*
X152987857Y-51214580D02*
X153035476Y-51119342D01*
X153035476Y-51119342D02*
X153035476Y-51024104D01*
X153035476Y-51024104D02*
X152987857Y-50928866D01*
X152987857Y-50928866D02*
X152940238Y-50881247D01*
X152940238Y-50881247D02*
X152845000Y-50833628D01*
X152845000Y-50833628D02*
X152654524Y-50786009D01*
X152654524Y-50786009D02*
X152559286Y-50738390D01*
X152559286Y-50738390D02*
X152511667Y-50690771D01*
X152511667Y-50690771D02*
X152464048Y-50595533D01*
X152464048Y-50595533D02*
X152464048Y-50500295D01*
X152464048Y-50500295D02*
X152511667Y-50405057D01*
X152511667Y-50405057D02*
X152559286Y-50357438D01*
X152559286Y-50357438D02*
X152654524Y-50309819D01*
X152654524Y-50309819D02*
X152892619Y-50309819D01*
X152892619Y-50309819D02*
X153035476Y-50357438D01*
X153797381Y-50786009D02*
X153940238Y-50833628D01*
X153940238Y-50833628D02*
X153987857Y-50881247D01*
X153987857Y-50881247D02*
X154035476Y-50976485D01*
X154035476Y-50976485D02*
X154035476Y-51119342D01*
X154035476Y-51119342D02*
X153987857Y-51214580D01*
X153987857Y-51214580D02*
X153940238Y-51262200D01*
X153940238Y-51262200D02*
X153845000Y-51309819D01*
X153845000Y-51309819D02*
X153464048Y-51309819D01*
X153464048Y-51309819D02*
X153464048Y-50309819D01*
X153464048Y-50309819D02*
X153797381Y-50309819D01*
X153797381Y-50309819D02*
X153892619Y-50357438D01*
X153892619Y-50357438D02*
X153940238Y-50405057D01*
X153940238Y-50405057D02*
X153987857Y-50500295D01*
X153987857Y-50500295D02*
X153987857Y-50595533D01*
X153987857Y-50595533D02*
X153940238Y-50690771D01*
X153940238Y-50690771D02*
X153892619Y-50738390D01*
X153892619Y-50738390D02*
X153797381Y-50786009D01*
X153797381Y-50786009D02*
X153464048Y-50786009D01*
X173529819Y-46664523D02*
X172529819Y-46664523D01*
X172529819Y-46664523D02*
X173244104Y-46331190D01*
X173244104Y-46331190D02*
X172529819Y-45997857D01*
X172529819Y-45997857D02*
X173529819Y-45997857D01*
X173482200Y-45569285D02*
X173529819Y-45426428D01*
X173529819Y-45426428D02*
X173529819Y-45188333D01*
X173529819Y-45188333D02*
X173482200Y-45093095D01*
X173482200Y-45093095D02*
X173434580Y-45045476D01*
X173434580Y-45045476D02*
X173339342Y-44997857D01*
X173339342Y-44997857D02*
X173244104Y-44997857D01*
X173244104Y-44997857D02*
X173148866Y-45045476D01*
X173148866Y-45045476D02*
X173101247Y-45093095D01*
X173101247Y-45093095D02*
X173053628Y-45188333D01*
X173053628Y-45188333D02*
X173006009Y-45378809D01*
X173006009Y-45378809D02*
X172958390Y-45474047D01*
X172958390Y-45474047D02*
X172910771Y-45521666D01*
X172910771Y-45521666D02*
X172815533Y-45569285D01*
X172815533Y-45569285D02*
X172720295Y-45569285D01*
X172720295Y-45569285D02*
X172625057Y-45521666D01*
X172625057Y-45521666D02*
X172577438Y-45474047D01*
X172577438Y-45474047D02*
X172529819Y-45378809D01*
X172529819Y-45378809D02*
X172529819Y-45140714D01*
X172529819Y-45140714D02*
X172577438Y-44997857D01*
X173006009Y-44235952D02*
X173053628Y-44093095D01*
X173053628Y-44093095D02*
X173101247Y-44045476D01*
X173101247Y-44045476D02*
X173196485Y-43997857D01*
X173196485Y-43997857D02*
X173339342Y-43997857D01*
X173339342Y-43997857D02*
X173434580Y-44045476D01*
X173434580Y-44045476D02*
X173482200Y-44093095D01*
X173482200Y-44093095D02*
X173529819Y-44188333D01*
X173529819Y-44188333D02*
X173529819Y-44569285D01*
X173529819Y-44569285D02*
X172529819Y-44569285D01*
X172529819Y-44569285D02*
X172529819Y-44235952D01*
X172529819Y-44235952D02*
X172577438Y-44140714D01*
X172577438Y-44140714D02*
X172625057Y-44093095D01*
X172625057Y-44093095D02*
X172720295Y-44045476D01*
X172720295Y-44045476D02*
X172815533Y-44045476D01*
X172815533Y-44045476D02*
X172910771Y-44093095D01*
X172910771Y-44093095D02*
X172958390Y-44140714D01*
X172958390Y-44140714D02*
X173006009Y-44235952D01*
X173006009Y-44235952D02*
X173006009Y-44569285D01*
X174988095Y-94931009D02*
X175321428Y-94931009D01*
X175464285Y-95454819D02*
X174988095Y-95454819D01*
X174988095Y-95454819D02*
X174988095Y-94454819D01*
X174988095Y-94454819D02*
X175464285Y-94454819D01*
X175892857Y-94931009D02*
X176226190Y-94931009D01*
X176369047Y-95454819D02*
X175892857Y-95454819D01*
X175892857Y-95454819D02*
X175892857Y-94454819D01*
X175892857Y-94454819D02*
X176369047Y-94454819D01*
X176797619Y-95454819D02*
X176797619Y-94454819D01*
X176797619Y-94454819D02*
X177178571Y-94454819D01*
X177178571Y-94454819D02*
X177273809Y-94502438D01*
X177273809Y-94502438D02*
X177321428Y-94550057D01*
X177321428Y-94550057D02*
X177369047Y-94645295D01*
X177369047Y-94645295D02*
X177369047Y-94788152D01*
X177369047Y-94788152D02*
X177321428Y-94883390D01*
X177321428Y-94883390D02*
X177273809Y-94931009D01*
X177273809Y-94931009D02*
X177178571Y-94978628D01*
X177178571Y-94978628D02*
X176797619Y-94978628D01*
X178369047Y-95454819D02*
X178035714Y-94978628D01*
X177797619Y-95454819D02*
X177797619Y-94454819D01*
X177797619Y-94454819D02*
X178178571Y-94454819D01*
X178178571Y-94454819D02*
X178273809Y-94502438D01*
X178273809Y-94502438D02*
X178321428Y-94550057D01*
X178321428Y-94550057D02*
X178369047Y-94645295D01*
X178369047Y-94645295D02*
X178369047Y-94788152D01*
X178369047Y-94788152D02*
X178321428Y-94883390D01*
X178321428Y-94883390D02*
X178273809Y-94931009D01*
X178273809Y-94931009D02*
X178178571Y-94978628D01*
X178178571Y-94978628D02*
X177797619Y-94978628D01*
X178988095Y-94454819D02*
X179178571Y-94454819D01*
X179178571Y-94454819D02*
X179273809Y-94502438D01*
X179273809Y-94502438D02*
X179369047Y-94597676D01*
X179369047Y-94597676D02*
X179416666Y-94788152D01*
X179416666Y-94788152D02*
X179416666Y-95121485D01*
X179416666Y-95121485D02*
X179369047Y-95311961D01*
X179369047Y-95311961D02*
X179273809Y-95407200D01*
X179273809Y-95407200D02*
X179178571Y-95454819D01*
X179178571Y-95454819D02*
X178988095Y-95454819D01*
X178988095Y-95454819D02*
X178892857Y-95407200D01*
X178892857Y-95407200D02*
X178797619Y-95311961D01*
X178797619Y-95311961D02*
X178750000Y-95121485D01*
X178750000Y-95121485D02*
X178750000Y-94788152D01*
X178750000Y-94788152D02*
X178797619Y-94597676D01*
X178797619Y-94597676D02*
X178892857Y-94502438D01*
X178892857Y-94502438D02*
X178988095Y-94454819D01*
X179845238Y-95454819D02*
X179845238Y-94454819D01*
X179845238Y-94454819D02*
X180178571Y-95169104D01*
X180178571Y-95169104D02*
X180511904Y-94454819D01*
X180511904Y-94454819D02*
X180511904Y-95454819D01*
X168900000Y-52154819D02*
X168900000Y-52392914D01*
X168661905Y-52297676D02*
X168900000Y-52392914D01*
X168900000Y-52392914D02*
X169138095Y-52297676D01*
X168757143Y-52583390D02*
X168900000Y-52392914D01*
X168900000Y-52392914D02*
X169042857Y-52583390D01*
X125059523Y-90681009D02*
X125392856Y-90681009D01*
X125535713Y-91204819D02*
X125059523Y-91204819D01*
X125059523Y-91204819D02*
X125059523Y-90204819D01*
X125059523Y-90204819D02*
X125535713Y-90204819D01*
X125964285Y-90681009D02*
X126297618Y-90681009D01*
X126440475Y-91204819D02*
X125964285Y-91204819D01*
X125964285Y-91204819D02*
X125964285Y-90204819D01*
X125964285Y-90204819D02*
X126440475Y-90204819D01*
X126869047Y-91204819D02*
X126869047Y-90204819D01*
X126869047Y-90204819D02*
X127249999Y-90204819D01*
X127249999Y-90204819D02*
X127345237Y-90252438D01*
X127345237Y-90252438D02*
X127392856Y-90300057D01*
X127392856Y-90300057D02*
X127440475Y-90395295D01*
X127440475Y-90395295D02*
X127440475Y-90538152D01*
X127440475Y-90538152D02*
X127392856Y-90633390D01*
X127392856Y-90633390D02*
X127345237Y-90681009D01*
X127345237Y-90681009D02*
X127249999Y-90728628D01*
X127249999Y-90728628D02*
X126869047Y-90728628D01*
X128440475Y-91204819D02*
X128107142Y-90728628D01*
X127869047Y-91204819D02*
X127869047Y-90204819D01*
X127869047Y-90204819D02*
X128249999Y-90204819D01*
X128249999Y-90204819D02*
X128345237Y-90252438D01*
X128345237Y-90252438D02*
X128392856Y-90300057D01*
X128392856Y-90300057D02*
X128440475Y-90395295D01*
X128440475Y-90395295D02*
X128440475Y-90538152D01*
X128440475Y-90538152D02*
X128392856Y-90633390D01*
X128392856Y-90633390D02*
X128345237Y-90681009D01*
X128345237Y-90681009D02*
X128249999Y-90728628D01*
X128249999Y-90728628D02*
X127869047Y-90728628D01*
X129059523Y-90204819D02*
X129249999Y-90204819D01*
X129249999Y-90204819D02*
X129345237Y-90252438D01*
X129345237Y-90252438D02*
X129440475Y-90347676D01*
X129440475Y-90347676D02*
X129488094Y-90538152D01*
X129488094Y-90538152D02*
X129488094Y-90871485D01*
X129488094Y-90871485D02*
X129440475Y-91061961D01*
X129440475Y-91061961D02*
X129345237Y-91157200D01*
X129345237Y-91157200D02*
X129249999Y-91204819D01*
X129249999Y-91204819D02*
X129059523Y-91204819D01*
X129059523Y-91204819D02*
X128964285Y-91157200D01*
X128964285Y-91157200D02*
X128869047Y-91061961D01*
X128869047Y-91061961D02*
X128821428Y-90871485D01*
X128821428Y-90871485D02*
X128821428Y-90538152D01*
X128821428Y-90538152D02*
X128869047Y-90347676D01*
X128869047Y-90347676D02*
X128964285Y-90252438D01*
X128964285Y-90252438D02*
X129059523Y-90204819D01*
X129916666Y-91204819D02*
X129916666Y-90204819D01*
X129916666Y-90204819D02*
X130249999Y-90919104D01*
X130249999Y-90919104D02*
X130583332Y-90204819D01*
X130583332Y-90204819D02*
X130583332Y-91204819D01*
X131821428Y-91204819D02*
X131821428Y-90204819D01*
X131821428Y-90204819D02*
X132202380Y-90204819D01*
X132202380Y-90204819D02*
X132297618Y-90252438D01*
X132297618Y-90252438D02*
X132345237Y-90300057D01*
X132345237Y-90300057D02*
X132392856Y-90395295D01*
X132392856Y-90395295D02*
X132392856Y-90538152D01*
X132392856Y-90538152D02*
X132345237Y-90633390D01*
X132345237Y-90633390D02*
X132297618Y-90681009D01*
X132297618Y-90681009D02*
X132202380Y-90728628D01*
X132202380Y-90728628D02*
X131821428Y-90728628D01*
X132821428Y-91204819D02*
X132821428Y-90538152D01*
X132821428Y-90728628D02*
X132869047Y-90633390D01*
X132869047Y-90633390D02*
X132916666Y-90585771D01*
X132916666Y-90585771D02*
X133011904Y-90538152D01*
X133011904Y-90538152D02*
X133107142Y-90538152D01*
X133583333Y-91204819D02*
X133488095Y-91157200D01*
X133488095Y-91157200D02*
X133440476Y-91109580D01*
X133440476Y-91109580D02*
X133392857Y-91014342D01*
X133392857Y-91014342D02*
X133392857Y-90728628D01*
X133392857Y-90728628D02*
X133440476Y-90633390D01*
X133440476Y-90633390D02*
X133488095Y-90585771D01*
X133488095Y-90585771D02*
X133583333Y-90538152D01*
X133583333Y-90538152D02*
X133726190Y-90538152D01*
X133726190Y-90538152D02*
X133821428Y-90585771D01*
X133821428Y-90585771D02*
X133869047Y-90633390D01*
X133869047Y-90633390D02*
X133916666Y-90728628D01*
X133916666Y-90728628D02*
X133916666Y-91014342D01*
X133916666Y-91014342D02*
X133869047Y-91109580D01*
X133869047Y-91109580D02*
X133821428Y-91157200D01*
X133821428Y-91157200D02*
X133726190Y-91204819D01*
X133726190Y-91204819D02*
X133583333Y-91204819D01*
X134773809Y-90538152D02*
X134773809Y-91347676D01*
X134773809Y-91347676D02*
X134726190Y-91442914D01*
X134726190Y-91442914D02*
X134678571Y-91490533D01*
X134678571Y-91490533D02*
X134583333Y-91538152D01*
X134583333Y-91538152D02*
X134440476Y-91538152D01*
X134440476Y-91538152D02*
X134345238Y-91490533D01*
X134773809Y-91157200D02*
X134678571Y-91204819D01*
X134678571Y-91204819D02*
X134488095Y-91204819D01*
X134488095Y-91204819D02*
X134392857Y-91157200D01*
X134392857Y-91157200D02*
X134345238Y-91109580D01*
X134345238Y-91109580D02*
X134297619Y-91014342D01*
X134297619Y-91014342D02*
X134297619Y-90728628D01*
X134297619Y-90728628D02*
X134345238Y-90633390D01*
X134345238Y-90633390D02*
X134392857Y-90585771D01*
X134392857Y-90585771D02*
X134488095Y-90538152D01*
X134488095Y-90538152D02*
X134678571Y-90538152D01*
X134678571Y-90538152D02*
X134773809Y-90585771D01*
X135250000Y-91204819D02*
X135250000Y-90538152D01*
X135250000Y-90728628D02*
X135297619Y-90633390D01*
X135297619Y-90633390D02*
X135345238Y-90585771D01*
X135345238Y-90585771D02*
X135440476Y-90538152D01*
X135440476Y-90538152D02*
X135535714Y-90538152D01*
X136297619Y-91204819D02*
X136297619Y-90681009D01*
X136297619Y-90681009D02*
X136250000Y-90585771D01*
X136250000Y-90585771D02*
X136154762Y-90538152D01*
X136154762Y-90538152D02*
X135964286Y-90538152D01*
X135964286Y-90538152D02*
X135869048Y-90585771D01*
X136297619Y-91157200D02*
X136202381Y-91204819D01*
X136202381Y-91204819D02*
X135964286Y-91204819D01*
X135964286Y-91204819D02*
X135869048Y-91157200D01*
X135869048Y-91157200D02*
X135821429Y-91061961D01*
X135821429Y-91061961D02*
X135821429Y-90966723D01*
X135821429Y-90966723D02*
X135869048Y-90871485D01*
X135869048Y-90871485D02*
X135964286Y-90823866D01*
X135964286Y-90823866D02*
X136202381Y-90823866D01*
X136202381Y-90823866D02*
X136297619Y-90776247D01*
X136773810Y-91204819D02*
X136773810Y-90538152D01*
X136773810Y-90633390D02*
X136821429Y-90585771D01*
X136821429Y-90585771D02*
X136916667Y-90538152D01*
X136916667Y-90538152D02*
X137059524Y-90538152D01*
X137059524Y-90538152D02*
X137154762Y-90585771D01*
X137154762Y-90585771D02*
X137202381Y-90681009D01*
X137202381Y-90681009D02*
X137202381Y-91204819D01*
X137202381Y-90681009D02*
X137250000Y-90585771D01*
X137250000Y-90585771D02*
X137345238Y-90538152D01*
X137345238Y-90538152D02*
X137488095Y-90538152D01*
X137488095Y-90538152D02*
X137583334Y-90585771D01*
X137583334Y-90585771D02*
X137630953Y-90681009D01*
X137630953Y-90681009D02*
X137630953Y-91204819D01*
X138107143Y-91204819D02*
X138107143Y-90538152D01*
X138107143Y-90633390D02*
X138154762Y-90585771D01*
X138154762Y-90585771D02*
X138250000Y-90538152D01*
X138250000Y-90538152D02*
X138392857Y-90538152D01*
X138392857Y-90538152D02*
X138488095Y-90585771D01*
X138488095Y-90585771D02*
X138535714Y-90681009D01*
X138535714Y-90681009D02*
X138535714Y-91204819D01*
X138535714Y-90681009D02*
X138583333Y-90585771D01*
X138583333Y-90585771D02*
X138678571Y-90538152D01*
X138678571Y-90538152D02*
X138821428Y-90538152D01*
X138821428Y-90538152D02*
X138916667Y-90585771D01*
X138916667Y-90585771D02*
X138964286Y-90681009D01*
X138964286Y-90681009D02*
X138964286Y-91204819D01*
X139821428Y-91157200D02*
X139726190Y-91204819D01*
X139726190Y-91204819D02*
X139535714Y-91204819D01*
X139535714Y-91204819D02*
X139440476Y-91157200D01*
X139440476Y-91157200D02*
X139392857Y-91061961D01*
X139392857Y-91061961D02*
X139392857Y-90681009D01*
X139392857Y-90681009D02*
X139440476Y-90585771D01*
X139440476Y-90585771D02*
X139535714Y-90538152D01*
X139535714Y-90538152D02*
X139726190Y-90538152D01*
X139726190Y-90538152D02*
X139821428Y-90585771D01*
X139821428Y-90585771D02*
X139869047Y-90681009D01*
X139869047Y-90681009D02*
X139869047Y-90776247D01*
X139869047Y-90776247D02*
X139392857Y-90871485D01*
X140297619Y-91204819D02*
X140297619Y-90538152D01*
X140297619Y-90728628D02*
X140345238Y-90633390D01*
X140345238Y-90633390D02*
X140392857Y-90585771D01*
X140392857Y-90585771D02*
X140488095Y-90538152D01*
X140488095Y-90538152D02*
X140583333Y-90538152D01*
X168900000Y-52154819D02*
X168900000Y-52392914D01*
X168661905Y-52297676D02*
X168900000Y-52392914D01*
X168900000Y-52392914D02*
X169138095Y-52297676D01*
X168757143Y-52583390D02*
X168900000Y-52392914D01*
X168900000Y-52392914D02*
X169042857Y-52583390D01*
X129824762Y-84169104D02*
X130300952Y-84169104D01*
X129729524Y-84454819D02*
X130062857Y-83454819D01*
X130062857Y-83454819D02*
X130396190Y-84454819D01*
X130729524Y-84454819D02*
X130729524Y-83788152D01*
X130729524Y-83978628D02*
X130777143Y-83883390D01*
X130777143Y-83883390D02*
X130824762Y-83835771D01*
X130824762Y-83835771D02*
X130920000Y-83788152D01*
X130920000Y-83788152D02*
X131015238Y-83788152D01*
X131777143Y-84454819D02*
X131777143Y-83454819D01*
X131777143Y-84407200D02*
X131681905Y-84454819D01*
X131681905Y-84454819D02*
X131491429Y-84454819D01*
X131491429Y-84454819D02*
X131396191Y-84407200D01*
X131396191Y-84407200D02*
X131348572Y-84359580D01*
X131348572Y-84359580D02*
X131300953Y-84264342D01*
X131300953Y-84264342D02*
X131300953Y-83978628D01*
X131300953Y-83978628D02*
X131348572Y-83883390D01*
X131348572Y-83883390D02*
X131396191Y-83835771D01*
X131396191Y-83835771D02*
X131491429Y-83788152D01*
X131491429Y-83788152D02*
X131681905Y-83788152D01*
X131681905Y-83788152D02*
X131777143Y-83835771D01*
X132681905Y-83788152D02*
X132681905Y-84454819D01*
X132253334Y-83788152D02*
X132253334Y-84311961D01*
X132253334Y-84311961D02*
X132300953Y-84407200D01*
X132300953Y-84407200D02*
X132396191Y-84454819D01*
X132396191Y-84454819D02*
X132539048Y-84454819D01*
X132539048Y-84454819D02*
X132634286Y-84407200D01*
X132634286Y-84407200D02*
X132681905Y-84359580D01*
X133158096Y-84454819D02*
X133158096Y-83788152D01*
X133158096Y-83454819D02*
X133110477Y-83502438D01*
X133110477Y-83502438D02*
X133158096Y-83550057D01*
X133158096Y-83550057D02*
X133205715Y-83502438D01*
X133205715Y-83502438D02*
X133158096Y-83454819D01*
X133158096Y-83454819D02*
X133158096Y-83550057D01*
X133634286Y-83788152D02*
X133634286Y-84454819D01*
X133634286Y-83883390D02*
X133681905Y-83835771D01*
X133681905Y-83835771D02*
X133777143Y-83788152D01*
X133777143Y-83788152D02*
X133920000Y-83788152D01*
X133920000Y-83788152D02*
X134015238Y-83835771D01*
X134015238Y-83835771D02*
X134062857Y-83931009D01*
X134062857Y-83931009D02*
X134062857Y-84454819D01*
X134681905Y-84454819D02*
X134586667Y-84407200D01*
X134586667Y-84407200D02*
X134539048Y-84359580D01*
X134539048Y-84359580D02*
X134491429Y-84264342D01*
X134491429Y-84264342D02*
X134491429Y-83978628D01*
X134491429Y-83978628D02*
X134539048Y-83883390D01*
X134539048Y-83883390D02*
X134586667Y-83835771D01*
X134586667Y-83835771D02*
X134681905Y-83788152D01*
X134681905Y-83788152D02*
X134824762Y-83788152D01*
X134824762Y-83788152D02*
X134920000Y-83835771D01*
X134920000Y-83835771D02*
X134967619Y-83883390D01*
X134967619Y-83883390D02*
X135015238Y-83978628D01*
X135015238Y-83978628D02*
X135015238Y-84264342D01*
X135015238Y-84264342D02*
X134967619Y-84359580D01*
X134967619Y-84359580D02*
X134920000Y-84407200D01*
X134920000Y-84407200D02*
X134824762Y-84454819D01*
X134824762Y-84454819D02*
X134681905Y-84454819D01*
X133681904Y-43905180D02*
X133681904Y-43095657D01*
X133681904Y-43095657D02*
X133634285Y-43000419D01*
X133634285Y-43000419D02*
X133586666Y-42952800D01*
X133586666Y-42952800D02*
X133491428Y-42905180D01*
X133491428Y-42905180D02*
X133300952Y-42905180D01*
X133300952Y-42905180D02*
X133205714Y-42952800D01*
X133205714Y-42952800D02*
X133158095Y-43000419D01*
X133158095Y-43000419D02*
X133110476Y-43095657D01*
X133110476Y-43095657D02*
X133110476Y-43905180D01*
X132681904Y-42952800D02*
X132539047Y-42905180D01*
X132539047Y-42905180D02*
X132300952Y-42905180D01*
X132300952Y-42905180D02*
X132205714Y-42952800D01*
X132205714Y-42952800D02*
X132158095Y-43000419D01*
X132158095Y-43000419D02*
X132110476Y-43095657D01*
X132110476Y-43095657D02*
X132110476Y-43190895D01*
X132110476Y-43190895D02*
X132158095Y-43286133D01*
X132158095Y-43286133D02*
X132205714Y-43333752D01*
X132205714Y-43333752D02*
X132300952Y-43381371D01*
X132300952Y-43381371D02*
X132491428Y-43428990D01*
X132491428Y-43428990D02*
X132586666Y-43476609D01*
X132586666Y-43476609D02*
X132634285Y-43524228D01*
X132634285Y-43524228D02*
X132681904Y-43619466D01*
X132681904Y-43619466D02*
X132681904Y-43714704D01*
X132681904Y-43714704D02*
X132634285Y-43809942D01*
X132634285Y-43809942D02*
X132586666Y-43857561D01*
X132586666Y-43857561D02*
X132491428Y-43905180D01*
X132491428Y-43905180D02*
X132253333Y-43905180D01*
X132253333Y-43905180D02*
X132110476Y-43857561D01*
X131348571Y-43428990D02*
X131205714Y-43381371D01*
X131205714Y-43381371D02*
X131158095Y-43333752D01*
X131158095Y-43333752D02*
X131110476Y-43238514D01*
X131110476Y-43238514D02*
X131110476Y-43095657D01*
X131110476Y-43095657D02*
X131158095Y-43000419D01*
X131158095Y-43000419D02*
X131205714Y-42952800D01*
X131205714Y-42952800D02*
X131300952Y-42905180D01*
X131300952Y-42905180D02*
X131681904Y-42905180D01*
X131681904Y-42905180D02*
X131681904Y-43905180D01*
X131681904Y-43905180D02*
X131348571Y-43905180D01*
X131348571Y-43905180D02*
X131253333Y-43857561D01*
X131253333Y-43857561D02*
X131205714Y-43809942D01*
X131205714Y-43809942D02*
X131158095Y-43714704D01*
X131158095Y-43714704D02*
X131158095Y-43619466D01*
X131158095Y-43619466D02*
X131205714Y-43524228D01*
X131205714Y-43524228D02*
X131253333Y-43476609D01*
X131253333Y-43476609D02*
X131348571Y-43428990D01*
X131348571Y-43428990D02*
X131681904Y-43428990D01*
D12*
X151095000Y-51915000D02*
X157445000Y-51915000D01*
X151095000Y-71465000D02*
X157445000Y-71465000D01*
D13*
X149335000Y-52800000D02*
G75*
G02*
X149135000Y-52800000I-100000J0D01*
G01*
X149135000Y-52800000D02*
G75*
G02*
X149335000Y-52800000I100000J0D01*
G01*
D12*
X174135000Y-47105000D02*
X174135000Y-40755000D01*
X193685000Y-47105000D02*
X193685000Y-40755000D01*
D13*
X175120000Y-48965000D02*
G75*
G02*
X174920000Y-48965000I-100000J0D01*
G01*
X174920000Y-48965000D02*
G75*
G02*
X175120000Y-48965000I100000J0D01*
G01*
D14*
X170322400Y-53601700D02*
X170322400Y-91168300D01*
X170322400Y-91168300D02*
X184978200Y-91168300D01*
X184978200Y-53601700D02*
X170322400Y-53601700D01*
X184978200Y-91168300D02*
X184978200Y-53601700D01*
D15*
X123400000Y-39420000D02*
X123400000Y-82860000D01*
X123400000Y-39420000D02*
X128480000Y-39420000D01*
X123400000Y-82860000D02*
X141440000Y-82860000D01*
X126070000Y-42090000D02*
X123400000Y-42090000D01*
X126070000Y-80190000D02*
X123400000Y-80190000D01*
X126070000Y-80190000D02*
X126070000Y-42090000D01*
X128480000Y-36880000D02*
X136360000Y-36880000D01*
X128480000Y-47300000D02*
X128480000Y-36880000D01*
X136360000Y-36880000D02*
X136360000Y-47300000D01*
X136360000Y-47300000D02*
X128480000Y-47300000D01*
X138770000Y-42090000D02*
X141440000Y-42090000D01*
X138770000Y-77650000D02*
X138770000Y-42090000D01*
X138770000Y-77650000D02*
X138770000Y-80190000D01*
X138770000Y-77650000D02*
X141440000Y-77650000D01*
X138770000Y-80190000D02*
X141440000Y-80190000D01*
X141440000Y-39420000D02*
X136360000Y-39420000D01*
X141440000Y-77650000D02*
X141440000Y-39420000D01*
X141440000Y-82860000D02*
X141440000Y-80190000D01*
%LPC*%
D16*
X150300000Y-52800000D03*
D17*
X150300000Y-55340000D03*
X150300000Y-57880000D03*
X150300000Y-60420000D03*
X150300000Y-62960000D03*
X150300000Y-65500000D03*
X150300000Y-68040000D03*
X150300000Y-70580000D03*
X158240000Y-70580000D03*
X158240000Y-68040000D03*
X158240000Y-65500000D03*
X158240000Y-62960000D03*
X158240000Y-60420000D03*
X158240000Y-57880000D03*
X158240000Y-55340000D03*
X158240000Y-52800000D03*
D18*
X175020000Y-47900000D03*
D17*
X177560000Y-47900000D03*
X180100000Y-47900000D03*
X182640000Y-47900000D03*
X185180000Y-47900000D03*
X187720000Y-47900000D03*
X190260000Y-47900000D03*
X192800000Y-47900000D03*
X192800000Y-39960000D03*
X190260000Y-39960000D03*
X187720000Y-39960000D03*
X185180000Y-39960000D03*
X182640000Y-39960000D03*
X180100000Y-39960000D03*
X177560000Y-39960000D03*
X175020000Y-39960000D03*
D19*
X168900000Y-54224000D03*
D20*
X168900000Y-57018000D03*
X168900000Y-59812000D03*
X168900000Y-62606000D03*
X168900000Y-65400000D03*
X168900000Y-68194000D03*
X168900000Y-70988000D03*
X168900000Y-73782000D03*
X168900000Y-76576000D03*
X168900000Y-79370000D03*
X168900000Y-82164000D03*
X168900000Y-84958000D03*
X168900000Y-87752000D03*
X168900000Y-90546000D03*
X186400600Y-90546000D03*
X186400600Y-87752000D03*
X186400600Y-84958000D03*
X186400600Y-82164000D03*
X186400600Y-79370000D03*
X186400600Y-76576000D03*
X186400600Y-73782000D03*
X186400600Y-70988000D03*
X186400600Y-68194000D03*
X186400600Y-65400000D03*
X186400600Y-62606000D03*
X186400600Y-59812000D03*
X186400600Y-57018000D03*
X186400600Y-54224000D03*
D21*
X140040000Y-78920000D03*
D22*
X140040000Y-76380000D03*
X140040000Y-73840000D03*
X140040000Y-71300000D03*
X140040000Y-68760000D03*
X140040000Y-66220000D03*
X140040000Y-63680000D03*
X140040000Y-61140000D03*
X140040000Y-58600000D03*
X140040000Y-56060000D03*
X140040000Y-53520000D03*
X140040000Y-50980000D03*
X140040000Y-48440000D03*
X140040000Y-45900000D03*
X140040000Y-43360000D03*
X124800000Y-43360000D03*
X124800000Y-45900000D03*
X124800000Y-48440000D03*
X124800000Y-50980000D03*
X124800000Y-53520000D03*
X124800000Y-56060000D03*
X124800000Y-58600000D03*
X124800000Y-61140000D03*
X124800000Y-63680000D03*
X124800000Y-66220000D03*
X124800000Y-68760000D03*
X124800000Y-71300000D03*
X124800000Y-73840000D03*
X124800000Y-76380000D03*
X124800000Y-78920000D03*
%LPD*%
M02*
