G04 #@! TF.GenerationSoftware,KiCad,Pcbnew,9.0.0*
G04 #@! TF.CreationDate,2025-03-04T20:42:06+02:00*
G04 #@! TF.ProjectId,EEPROMProgrammer,45455052-4f4d-4507-926f-6772616d6d65,rev?*
G04 #@! TF.SameCoordinates,Original*
G04 #@! TF.FileFunction,Copper,L1,Top*
G04 #@! TF.FilePolarity,Positive*
%FSLAX46Y46*%
G04 Gerber Fmt 4.6, Leading zero omitted, Abs format (unit mm)*
G04 Created by KiCad (PCBNEW 9.0.0) date 2025-03-04 20:42:06*
%MOMM*%
%LPD*%
G01*
G04 APERTURE LIST*
G04 #@! TA.AperFunction,Conductor*
%ADD10C,0.254000*%
G04 #@! TD*
G04 #@! TA.AperFunction,ComponentPad*
%ADD11R,1.130000X1.130000*%
G04 #@! TD*
G04 #@! TA.AperFunction,ComponentPad*
%ADD12C,1.130000*%
G04 #@! TD*
G04 #@! TA.AperFunction,ComponentPad*
%ADD13R,1.524000X1.524000*%
G04 #@! TD*
G04 #@! TA.AperFunction,ComponentPad*
%ADD14R,1.524000X0.635000*%
G04 #@! TD*
G04 #@! TA.AperFunction,ComponentPad*
%ADD15R,1.600000X1.600000*%
G04 #@! TD*
G04 #@! TA.AperFunction,ComponentPad*
%ADD16O,1.600000X1.600000*%
G04 #@! TD*
G04 #@! TA.AperFunction,Conductor*
%ADD17C,0.150000*%
G04 #@! TD*
G04 #@! TA.AperFunction,Conductor*
%ADD18C,0.127000*%
G04 #@! TD*
G04 APERTURE END LIST*
D10*
X140300000Y-71700000D02*
X140200000Y-71400000D01*
D11*
X150300000Y-52800000D03*
D12*
X150300000Y-55340000D03*
X150300000Y-57880000D03*
X150300000Y-60420000D03*
X150300000Y-62960000D03*
X150300000Y-65500000D03*
X150300000Y-68040000D03*
X150300000Y-70580000D03*
X158240000Y-70580000D03*
X158240000Y-68040000D03*
X158240000Y-65500000D03*
X158240000Y-62960000D03*
X158240000Y-60420000D03*
X158240000Y-57880000D03*
X158240000Y-55340000D03*
X158240000Y-52800000D03*
D11*
X175020000Y-47900000D03*
D12*
X177560000Y-47900000D03*
X180100000Y-47900000D03*
X182640000Y-47900000D03*
X185180000Y-47900000D03*
X187720000Y-47900000D03*
X190260000Y-47900000D03*
X192800000Y-47900000D03*
X192800000Y-39960000D03*
X190260000Y-39960000D03*
X187720000Y-39960000D03*
X185180000Y-39960000D03*
X182640000Y-39960000D03*
X180100000Y-39960000D03*
X177560000Y-39960000D03*
X175020000Y-39960000D03*
D13*
X168900000Y-54224000D03*
D14*
X168900000Y-57018000D03*
X168900000Y-59812000D03*
X168900000Y-62606000D03*
X168900000Y-65400000D03*
X168900000Y-68194000D03*
X168900000Y-70988000D03*
X168900000Y-73782000D03*
X168900000Y-76576000D03*
X168900000Y-79370000D03*
X168900000Y-82164000D03*
X168900000Y-84958000D03*
X168900000Y-87752000D03*
X168900000Y-90546000D03*
X186400600Y-90546000D03*
X186400600Y-87752000D03*
X186400600Y-84958000D03*
X186400600Y-82164000D03*
X186400600Y-79370000D03*
X186400600Y-76576000D03*
X186400600Y-73782000D03*
X186400600Y-70988000D03*
X186400600Y-68194000D03*
X186400600Y-65400000D03*
X186400600Y-62606000D03*
X186400600Y-59812000D03*
X186400600Y-57018000D03*
X186400600Y-54224000D03*
D15*
X140040000Y-78920000D03*
D16*
X140040000Y-76380000D03*
X140040000Y-73840000D03*
X140040000Y-71300000D03*
X140040000Y-68760000D03*
X140040000Y-66220000D03*
X140040000Y-63680000D03*
X140040000Y-61140000D03*
X140040000Y-58600000D03*
X140040000Y-56060000D03*
X140040000Y-53520000D03*
X140040000Y-50980000D03*
X140040000Y-48440000D03*
X140040000Y-45900000D03*
X140040000Y-43360000D03*
X124800000Y-43360000D03*
X124800000Y-45900000D03*
X124800000Y-48440000D03*
X124800000Y-50980000D03*
X124800000Y-53520000D03*
X124800000Y-56060000D03*
X124800000Y-58600000D03*
X124800000Y-61140000D03*
X124800000Y-63680000D03*
X124800000Y-66220000D03*
X124800000Y-68760000D03*
X124800000Y-71300000D03*
X124800000Y-73840000D03*
X124800000Y-76380000D03*
X124800000Y-78920000D03*
D17*
X168900000Y-82164000D02*
X162970117Y-82164000D01*
D18*
X124800000Y-43360000D02*
X126300000Y-44860000D01*
D17*
X139921457Y-49443000D02*
X130883000Y-49443000D01*
X162970117Y-82164000D02*
X141043000Y-60236883D01*
X141043000Y-50564543D02*
X139921457Y-49443000D01*
X141043000Y-60236883D02*
X141043000Y-50564543D01*
X130883000Y-49443000D02*
X124800000Y-43360000D01*
D18*
X187142200Y-91266900D02*
X187354100Y-91055000D01*
X138793500Y-62386500D02*
X138793500Y-79656500D01*
X187354100Y-91055000D02*
X187354100Y-88705500D01*
X186909100Y-91500000D02*
X150750000Y-91500000D01*
X140040000Y-61140000D02*
X138793500Y-62386500D01*
X187354100Y-88705500D02*
X186400600Y-87752000D01*
X150750000Y-91500000D02*
X138889600Y-79639600D01*
X187142200Y-91266900D02*
X186909100Y-91500000D01*
D17*
X177390000Y-37250000D02*
X180100000Y-39960000D01*
X140250000Y-37250000D02*
X177390000Y-37250000D01*
X140040000Y-37460000D02*
X140250000Y-37250000D01*
X140040000Y-43360000D02*
X140040000Y-37460000D01*
D18*
X138538501Y-60101499D02*
X138538501Y-79788501D01*
X187609100Y-86166500D02*
X186400600Y-84958000D01*
X150650000Y-91900000D02*
X186869724Y-91900000D01*
X186869724Y-91900000D02*
X187609100Y-91160624D01*
X187609100Y-91160624D02*
X187609100Y-86166500D01*
X138538501Y-79788501D02*
X150650000Y-91900000D01*
X140040000Y-58600000D02*
X138538501Y-60101499D01*
X156238000Y-84958000D02*
X168900000Y-84958000D01*
X140040000Y-68760000D02*
X156238000Y-84958000D01*
X138283502Y-57816498D02*
X138283502Y-80041752D01*
X187864100Y-89500000D02*
X187864100Y-83627500D01*
X138283502Y-80041752D02*
X150199998Y-91958248D01*
X150541750Y-92300000D02*
X186830348Y-92300000D01*
X187864100Y-91266248D02*
X187864100Y-89500000D01*
X186830348Y-92300000D02*
X187864100Y-91266248D01*
X187864100Y-89500000D02*
X187864100Y-90750000D01*
X140040000Y-56060000D02*
X138283502Y-57816498D01*
X187864100Y-90750000D02*
X187864100Y-86000000D01*
X187864100Y-83627500D02*
X186400600Y-82164000D01*
X150199998Y-91958248D02*
X150541750Y-92300000D01*
D17*
X140040000Y-49073883D02*
X140040000Y-48440000D01*
X156466117Y-65500000D02*
X140040000Y-49073883D01*
X140040000Y-48440000D02*
X138250000Y-46650000D01*
X138250000Y-35750000D02*
X183510000Y-35750000D01*
X158240000Y-65500000D02*
X156466117Y-65500000D01*
X183510000Y-35750000D02*
X187720000Y-39960000D01*
X138250000Y-46650000D02*
X138250000Y-35750000D01*
D18*
X169853500Y-84449000D02*
X169853500Y-86798500D01*
X140040000Y-66220000D02*
X156704900Y-82884900D01*
X169853500Y-86798500D02*
X168900000Y-87752000D01*
X168289400Y-82884900D02*
X169853500Y-84449000D01*
X156704900Y-82884900D02*
X168289400Y-82884900D01*
D17*
X140040000Y-45900000D02*
X139037000Y-44897000D01*
X156833883Y-62960000D02*
X140040000Y-46166117D01*
X139037000Y-36713000D02*
X139250000Y-36500000D01*
X139250000Y-36500000D02*
X181720000Y-36500000D01*
X158240000Y-62960000D02*
X156833883Y-62960000D01*
X181720000Y-36500000D02*
X185180000Y-39960000D01*
X140040000Y-46166117D02*
X140040000Y-45900000D01*
X139037000Y-44897000D02*
X139037000Y-36713000D01*
X188130600Y-81100000D02*
X186400600Y-79370000D01*
X138000000Y-80250000D02*
X150250000Y-92500000D01*
X186757236Y-92750000D02*
X188130600Y-91376636D01*
X140040000Y-53520000D02*
X138000000Y-55560000D01*
X150249925Y-92500000D02*
X150250000Y-92500000D01*
X150250000Y-92500000D02*
X150500000Y-92750000D01*
X150500000Y-92750000D02*
X186757236Y-92750000D01*
X138000000Y-55560000D02*
X138000000Y-80250000D01*
X188130600Y-91376636D02*
X188130600Y-81100000D01*
D18*
X185679700Y-89825100D02*
X186400600Y-90546000D01*
X140040000Y-63680000D02*
X139048500Y-64671500D01*
X159967293Y-89825100D02*
X185679700Y-89825100D01*
X139048500Y-64671500D02*
X139048500Y-69727693D01*
X140450693Y-70308500D02*
X159967293Y-89825100D01*
X139048500Y-69727693D02*
X139629307Y-70308500D01*
X139629307Y-70308500D02*
X140450693Y-70308500D01*
D17*
X140765000Y-51705000D02*
X140765000Y-52826543D01*
X139037000Y-53104543D02*
X139037000Y-53935457D01*
X139134196Y-54032653D02*
X137722000Y-55444848D01*
X187285100Y-78849500D02*
X187365600Y-78849500D01*
X140455457Y-52517000D02*
X139624543Y-52517000D01*
X186685600Y-78250000D02*
X187285100Y-78849500D01*
X150222000Y-93472000D02*
X187558896Y-93472000D01*
X137722000Y-55444848D02*
X137722000Y-80972000D01*
X179500000Y-78250000D02*
X186685600Y-78250000D01*
X139037000Y-53935457D02*
X139134196Y-54032653D01*
X187365600Y-78849500D02*
X187365600Y-78930000D01*
X187558896Y-93472000D02*
X187750000Y-93472000D01*
X140765000Y-52826543D02*
X140455457Y-52517000D01*
X186400600Y-57018000D02*
X181232000Y-57018000D01*
X137722000Y-80972000D02*
X150222000Y-93472000D01*
X140040000Y-50980000D02*
X140765000Y-51705000D01*
X139624543Y-52517000D02*
X139037000Y-53104543D01*
X181232000Y-57018000D02*
X179500000Y-58750000D01*
X179500000Y-58750000D02*
X179500000Y-78250000D01*
X189000000Y-80564400D02*
X189000000Y-92222000D01*
X189000000Y-92222000D02*
X187750000Y-93472000D01*
X187365600Y-78930000D02*
X189000000Y-80564400D01*
X186915870Y-53703500D02*
X187365600Y-53703500D01*
X187365600Y-54744500D02*
X185612600Y-56497500D01*
X185612600Y-56497500D02*
X169420500Y-56497500D01*
X169420500Y-56497500D02*
X168900000Y-57018000D01*
X181112370Y-47900000D02*
X186915870Y-53703500D01*
X187365600Y-53703500D02*
X187365600Y-54744500D01*
X180100000Y-47900000D02*
X181112370Y-47900000D01*
X161154848Y-58648000D02*
X165112848Y-62606000D01*
X150300000Y-52800000D02*
X156148000Y-58648000D01*
X165112848Y-62606000D02*
X168900000Y-62606000D01*
X156148000Y-58648000D02*
X161154848Y-58648000D01*
X162000000Y-69250000D02*
X166532000Y-73782000D01*
X166532000Y-73782000D02*
X168900000Y-73782000D01*
X150300000Y-62960000D02*
X156590000Y-69250000D01*
X156590000Y-69250000D02*
X162000000Y-69250000D01*
X185435600Y-74302500D02*
X185647500Y-74514400D01*
X186400600Y-70988000D02*
X185435600Y-71953000D01*
X187153700Y-74514400D02*
X194778000Y-66890100D01*
X194115151Y-44722000D02*
X180738000Y-44722000D01*
X185435600Y-71953000D02*
X185435600Y-74302500D01*
X180738000Y-44722000D02*
X177560000Y-47900000D01*
X194778000Y-66890100D02*
X194778000Y-45384848D01*
X194778000Y-45384848D02*
X194115151Y-44722000D01*
X185647500Y-74514400D02*
X187153700Y-74514400D01*
X191528000Y-46028000D02*
X191528000Y-63066600D01*
X182640000Y-47900000D02*
X183408000Y-48668000D01*
X183408000Y-48668000D02*
X185498117Y-48668000D01*
X191528000Y-63066600D02*
X186400600Y-68194000D01*
X185498117Y-48668000D02*
X188416117Y-45750000D01*
X188416117Y-45750000D02*
X191250000Y-45750000D01*
X191250000Y-45750000D02*
X191528000Y-46028000D01*
X166000000Y-71000000D02*
X166012000Y-70988000D01*
X150300000Y-60420000D02*
X156630000Y-66750000D01*
X161750000Y-66750000D02*
X166000000Y-71000000D01*
X156630000Y-66750000D02*
X161750000Y-66750000D01*
X166012000Y-70988000D02*
X168900000Y-70988000D01*
X186400600Y-64099400D02*
X186400600Y-65400000D01*
X191250000Y-59250000D02*
X186400600Y-64099400D01*
X187720000Y-47900000D02*
X188620000Y-47000000D01*
X190986000Y-47000000D02*
X191250000Y-47264000D01*
X188620000Y-47000000D02*
X190986000Y-47000000D01*
X191250000Y-47264000D02*
X191250000Y-59250000D01*
X190260000Y-47900000D02*
X190260000Y-58746600D01*
X190260000Y-58746600D02*
X186400600Y-62606000D01*
X159825000Y-56925000D02*
X162712000Y-59812000D01*
X158240000Y-55340000D02*
X159825000Y-56925000D01*
X159825000Y-56925000D02*
X159950000Y-57050000D01*
X162712000Y-59812000D02*
X168900000Y-59812000D01*
X162000000Y-71750000D02*
X166826000Y-76576000D01*
X156550000Y-71750000D02*
X162000000Y-71750000D01*
X166826000Y-76576000D02*
X168900000Y-76576000D01*
X150300000Y-65500000D02*
X156550000Y-71750000D01*
X161750000Y-74000000D02*
X167120000Y-79370000D01*
X167120000Y-79370000D02*
X168900000Y-79370000D01*
X150300000Y-68040000D02*
X156260000Y-74000000D01*
X156260000Y-74000000D02*
X161750000Y-74000000D01*
X161188000Y-61188000D02*
X165400000Y-65400000D01*
X150300000Y-55340000D02*
X156148000Y-61188000D01*
X156148000Y-61188000D02*
X161188000Y-61188000D01*
X165400000Y-65400000D02*
X168900000Y-65400000D01*
X186400600Y-73782000D02*
X194500000Y-65682600D01*
X188080000Y-45000000D02*
X185180000Y-47900000D01*
X194500000Y-65682600D02*
X194500000Y-45500000D01*
X194000000Y-45000000D02*
X188080000Y-45000000D01*
X194500000Y-45500000D02*
X194000000Y-45000000D01*
X171271883Y-41222000D02*
X191538000Y-41222000D01*
X158240000Y-57880000D02*
X157472000Y-57112000D01*
X157472000Y-57112000D02*
X157472000Y-55021883D01*
X157472000Y-55021883D02*
X171271883Y-41222000D01*
X191538000Y-41222000D02*
X192800000Y-39960000D01*
M02*
